<svg xmlns="http://www.w3.org/2000/svg" width="19" height="13" viewBox="0 0 19 13" fill="none">
  <path d="M18.5 9.5C18.5 11.0962 16.9978 12.5 15 12.5C13.0022 12.5 11.5 11.0962 11.5 9.5C11.5 7.90377 13.0022 6.5 15 6.5C16.9978 6.5 18.5 7.90377 18.5 9.5Z" stroke="black"/>
  <path d="M7.5 9.5C7.5 11.0962 5.9978 12.5 4 12.5C2.0022 12.5 0.5 11.0962 0.5 9.5C0.5 7.90377 2.0022 6.5 4 6.5C5.9978 6.5 7.5 7.90377 7.5 9.5Z" stroke="black"/>
  <line x1="8" y1="9.5" x2="11" y2="9.5" stroke="black"/>
  <line x1="14.5" y1="6" x2="14.5" stroke="black"/>
  <line x1="14" y1="0.5" x2="10" y2="0.5" stroke="black"/>
  <line x1="3.5" y1="7" x2="3.5" y2="4" stroke="black"/>
  <rect x="2.5" y="2.5" width="3" height="1" stroke="black"/>
</svg>